<svg xmlns="http://www.w3.org/2000/svg" viewBox="0 0 24 24" width="24" height="24" fill="currentColor">
  <path d="M12 0.5C5.73 0.5 0.5 5.73 0.5 12c0 5.08 3.29 9.39 7.86 10.91.58.11.79-.25.79-.56 0-.28-.01-1.02-.02-2-3.2.7-3.88-1.54-3.88-1.54-.52-1.32-1.27-1.67-1.27-1.67-1.04-.71.08-.7.08-.7 1.15.08 1.75 1.18 1.75 1.18 1.02 1.75 2.67 1.24 3.32.95.1-.74.4-1.24.72-1.52-2.55-.29-5.24-1.27-5.24-5.64 0-1.24.44-2.25 1.17-3.05-.12-.29-.51-1.46.11-3.05 0 0 .95-.3 3.11 1.17.9-.25 1.86-.38 2.82-.38s1.92.13 2.82.38c2.16-1.47 3.11-1.17 3.11-1.17.62 1.59.23 2.76.11 3.05.73.8 1.17 1.81 1.17 3.05 0 4.38-2.69 5.35-5.25 5.63.41.35.77 1.04.77 2.1 0 1.52-.01 2.75-.01 3.12 0 .31.21.67.8.56A10.51 10.51 0 0 0 23.5 12C23.5 5.73 18.27 0.5 12 0.5z"/>
</svg>